<svg xmlns="http://www.w3.org/2000/svg" xmlns:xlink="http://www.w3.org/1999/xlink" viewBox="0 0 427 584" width="427" height="584" preserveAspectRatio="xMidYMid meet" style="width: 100%; height: 100%; transform: translate3d(0px, 0px, 0px); content-visibility: visible;"><defs><clipPath id="__lottie_element_16"><rect width="427" height="584" x="0" y="0"></rect></clipPath></defs><g clip-path="url(#__lottie_element_16)"><g style="display: block;" transform="matrix(1.0007799863815308,0,0,0.8795199990272522,-0.7505340576171875,-0.268646240234375)" opacity="1"><g opacity="1" transform="matrix(1,0,0,1,214.08299255371094,332.30499267578125)"><path fill="rgb(39,41,50)" fill-opacity="1" d=" M-213.33299255371094,332 C-213.33299255371094,332 213.33299255371094,332 213.33299255371094,332 C213.33299255371094,332 213.33299255371094,-332 213.33299255371094,-332 C213.33299255371094,-332 -213.33299255371094,-332 -213.33299255371094,-332 C-213.33299255371094,-332 -213.33299255371094,332 -213.33299255371094,332z"></path></g></g><g style="display: block;" transform="matrix(1,0,0,1,1,0)" opacity="0.9999999999999998"><g opacity="1" transform="matrix(1,0,0,1,214.90199279785156,348.54998779296875)"><path fill="rgb(48,50,58)" fill-opacity="1" d=" M-213.5,347.5429992675781 C-213.5,347.5429992675781 -148.52000427246094,347.5429992675781 -148.52000427246094,347.5429992675781 C-148.52000427246094,347.5429992675781 -148.52000427246094,77.01300048828125 -148.52000427246094,77.01300048828125 C-148.52000427246094,77.01300048828125 -213.5,77.01300048828125 -213.5,77.01300048828125 C-213.5,77.01300048828125 -213.5,347.5429992675781 -213.5,347.5429992675781z"></path></g></g><g style="display: block;" transform="matrix(1,0,0,1,1,0)" opacity="1"><g opacity="1" transform="matrix(1,0,0,1,213.5,332)"><path fill="rgb(46,47,56)" fill-opacity="1" d=" M-148.52000427246094,92.35800170898438 C-148.52000427246094,92.35800170898438 -70.94200134277344,92.35800170898438 -70.94200134277344,92.35800170898438 C-70.94200134277344,92.35800170898438 -70.94200134277344,15.442999839782715 -70.94200134277344,15.442999839782715 C-70.94200134277344,15.442999839782715 -148.52000427246094,15.442999839782715 -148.52000427246094,15.442999839782715 C-148.52000427246094,15.442999839782715 -148.52000427246094,92.35800170898438 -148.52000427246094,92.35800170898438z"></path></g></g><g style="display: block;" transform="matrix(1,0,0,1,1,0)" opacity="1"><g opacity="1" transform="matrix(1,0,0,1,213.5,332)"><path fill="rgb(44,46,54)" fill-opacity="1" d=" M-213.5,15.442999839782715 C-213.5,15.442999839782715 -148.52000427246094,15.442999839782715 -148.52000427246094,15.442999839782715 C-148.52000427246094,15.442999839782715 -148.52000427246094,-255.08599853515625 -148.52000427246094,-255.08599853515625 C-148.52000427246094,-255.08599853515625 -213.5,-255.08599853515625 -213.5,-255.08599853515625 C-213.5,-255.08599853515625 -213.5,15.442999839782715 -213.5,15.442999839782715z"></path></g></g><g style="display: block;" transform="matrix(1,0,0,1,1,0)" opacity="1"><g opacity="1" transform="matrix(1,0,0,1,245.33200073242188,212.17799377441406)"><path fill="rgb(66,66,73)" fill-opacity="1" d=" M-102.77400207519531,135.26400756835938 C-102.77400207519531,135.26400756835938 102.7750015258789,135.26400756835938 102.7750015258789,135.26400756835938 C102.7750015258789,135.26400756835938 102.7750015258789,-135.26400756835938 102.7750015258789,-135.26400756835938 C102.7750015258789,-135.26400756835938 -102.77400207519531,-135.26400756835938 -102.77400207519531,-135.26400756835938 C-102.77400207519531,-135.26400756835938 -102.77400207519531,135.26400756835938 -102.77400207519531,135.26400756835938z"></path></g></g><g style="display: block;" transform="matrix(1,0,0,1,1,0)" opacity="1"><g opacity="1" transform="matrix(1,0,0,1,213.5,332)"><path fill="rgb(53,54,61)" fill-opacity="1" d=" M-148.52000427246094,-255.0850067138672 C-148.52000427246094,-255.0850067138672 -70.94200134277344,-255.0850067138672 -70.94200134277344,-255.0850067138672 C-70.94200134277344,-255.0850067138672 -70.94200134277344,-332 -70.94200134277344,-332 C-70.94200134277344,-332 -148.52000427246094,-332 -148.52000427246094,-332 C-148.52000427246094,-332 -148.52000427246094,-255.0850067138672 -148.52000427246094,-255.0850067138672z"></path></g></g><g style="display: block;" transform="matrix(1,0,0,1,1,0)" opacity="1"><g opacity="1" transform="matrix(1,0,0,1,213.5,347.5429992675781)"><path fill="rgb(59,60,66)" fill-opacity="1" d=" M-70.94200134277344,347.5429992675781 C-70.94200134277344,347.5429992675781 134.60699462890625,347.5429992675781 134.60699462890625,347.5429992675781 C134.60699462890625,347.5429992675781 134.60699462890625,77.01300048828125 134.60699462890625,77.01300048828125 C134.60699462890625,77.01300048828125 -70.94200134277344,77.01300048828125 -70.94200134277344,77.01300048828125 C-70.94200134277344,77.01300048828125 -70.94200134277344,347.5429992675781 -70.94200134277344,347.5429992675781z"></path></g></g><g style="display: block;" transform="matrix(1,0,0,1,1,0)" opacity="1"><g opacity="1" transform="matrix(1,0,0,1,213.5,347.5429992675781)"><path fill="rgb(59,60,66)" fill-opacity="1" d=" M-70.94200134277344,347.5429992675781 C-70.94200134277344,347.5429992675781 134.60699462890625,347.5429992675781 134.60699462890625,347.5429992675781 C134.60699462890625,347.5429992675781 134.60699462890625,77.01300048828125 134.60699462890625,77.01300048828125 C134.60699462890625,77.01300048828125 -70.94200134277344,77.01300048828125 -70.94200134277344,77.01300048828125 C-70.94200134277344,77.01300048828125 -70.94200134277344,347.5429992675781 -70.94200134277344,347.5429992675781z"></path></g></g><g style="display: block;" transform="matrix(1,0,0,1,1,0)" opacity="1"><g opacity="1" transform="matrix(1,0,0,1,213.5,332)"><path fill="rgb(53,54,61)" fill-opacity="1" d=" M134.60699462890625,92.35800170898438 C134.60699462890625,92.35800170898438 211.52200317382812,92.35800170898438 211.52200317382812,92.35800170898438 C211.52200317382812,92.35800170898438 211.52200317382812,15.442999839782715 211.52200317382812,15.442999839782715 C211.52200317382812,15.442999839782715 134.60699462890625,15.442999839782715 134.60699462890625,15.442999839782715 C134.60699462890625,15.442999839782715 134.60699462890625,92.35800170898438 134.60699462890625,92.35800170898438z"></path></g></g><g style="display: block;" transform="matrix(1,0,0,1,1,0)" opacity="1"><g opacity="1" transform="matrix(1,0,0,1,213.5,332)"><path fill="rgb(53,54,61)" fill-opacity="1" d=" M134.60699462890625,-255.0850067138672 C134.60699462890625,-255.0850067138672 211.52200317382812,-255.0850067138672 211.52200317382812,-255.0850067138672 C211.52200317382812,-255.0850067138672 211.52200317382812,-332 211.52200317382812,-332 C211.52200317382812,-332 134.60699462890625,-332 134.60699462890625,-332 C134.60699462890625,-332 134.60699462890625,-255.0850067138672 134.60699462890625,-255.0850067138672z"></path></g></g></g></svg>